<?xml version="1.0" encoding="UTF-8"?>
<svg width="122px" height="14px" viewBox="0 0 122 14" version="1.1" xmlns="http://www.w3.org/2000/svg" xmlns:xlink="http://www.w3.org/1999/xlink">
    <!-- Generator: Sketch 43.1 (39012) - http://www.bohemiancoding.com/sketch -->
    <title>R6r</title>
    <desc>Created with Sketch.</desc>
    <defs></defs>
    <g id="Page-1" stroke="none" stroke-width="1" fill="none" fill-rule="evenodd">
        <g id="Desktop" transform="translate(-448.000000, -522.000000)" fill="#184973">
            <path d="M494.613518,529.35702 C494.786578,529.19484 495.001118,529.4308 494.832138,529.58924 C491.585478,532.61014 487.738378,535.17612 483.880738,535.17612 C482.383038,535.17612 481.917918,534.60288 482.057318,533.81204 C482.122258,533.444501 482.350058,532.98958 482.678838,532.512221 C476.150838,532.301421 469.668398,524.643941 458.933238,523.7188 C454.168138,523.30808 448.937918,525.19134 448.937918,529.47432 C448.937918,532.22118 452.417478,533.94362 454.742738,534.36114 C459.783238,535.26656 463.482098,533.28878 463.074778,529.215921 C463.021058,528.68076 463.710238,528.66036 463.765658,529.160501 C464.223298,533.27654 460.252778,535.69632 454.682558,534.695701 C452.310038,534.269681 448.597919,532.432321 448.597919,529.474321 C448.597919,525.004681 453.913819,522.944961 458.962139,523.37982 C470.021319,524.33318 476.415359,532.16474 482.922959,532.178 C483.981379,530.80066 485.739519,529.36382 486.766659,529.36382 C487.228039,529.36382 487.47046,529.63514 487.47046,530.01866 C487.47046,530.82344 486.402519,532.12156 484.04394,532.44354 C483.72434,532.48706 483.40508,532.51052 483.0865,532.51562 C482.71896,533.01134 482.45954,533.49006 482.39222,533.8712 C482.28002,534.50802 482.73052,534.87726 483.88278,534.87726 C487.62006,534.87726 491.42874,532.31366 494.61352,529.35702 L494.613518,529.35702 Z M486.766658,529.70382 C485.946578,529.70382 484.383598,530.93054 483.360538,532.16678 C483.572699,532.15556 483.785199,532.135501 483.998038,532.1066 C485.733058,531.86996 487.130459,530.90572 487.130459,530.01866 C487.130459,529.80276 487.023018,529.70382 486.766659,529.70382 L486.766658,529.70382 Z M510.05326,527.660081 C508.25602,525.713581 507.24962,523.488621 504.44462,523.488621 C502.0483,523.488621 499.13178,524.956741 494.8624,529.557961 C494.77128,529.656561 494.726741,529.632421 494.645481,529.587201 C494.54858,529.533141 494.55402,529.416861 494.6261,529.339341 C498.9067,524.702081 501.43562,523.179561 504.583001,523.179561 C505.831481,523.179561 506.939881,523.598441 508.103701,524.785041 C510.306901,523.065661 511.27726,525.02576 510.77236,526.34632 C510.57686,526.85768 510.30792,527.35102 510.05326,527.66008 L510.05326,527.660081 Z M509.697963,528.050062 C511.348323,529.936722 513.446463,531.922662 516.260983,531.922662 C517.804583,531.922662 519.923123,531.054302 521.843103,529.359062 C521.963123,529.252642 522.233423,529.427742 522.034183,529.618822 C520.164183,531.411982 517.907263,532.314002 516.181082,532.314002 C513.329162,532.314002 511.076662,530.286582 509.379382,528.390402 C508.015982,529.817382 506.809322,530.550082 505.931442,532.048122 C505.597222,532.618642 505.514942,532.114422 505.518682,531.952922 C505.539762,530.982562 505.244301,529.290382 504.865881,528.433242 C503.911501,526.272202 504.736341,524.988702 505.732881,524.785041 C506.873921,524.552141 508.010881,526.120901 509.697961,528.050061 L509.697963,528.050062 Z M563.165342,523.123119 C565.537862,523.549479 569.249982,525.386499 569.249982,528.344499 C569.249982,532.814139 563.934082,534.874199 558.885762,534.438999 C547.826582,533.485639 541.432542,525.654079 534.924942,525.641159 C533.866522,527.018499 532.108382,528.454999 531.081242,528.454999 C530.619861,528.454999 530.377441,528.183679 530.377441,527.800159 C530.377441,526.995719 531.445381,525.697259 533.803961,525.375619 C534.123561,525.332099 534.442821,525.308299 534.761401,525.303199 C535.128941,524.807479 535.388361,524.329099 535.455681,523.947959 C535.567881,523.311139 535.117381,522.941559 533.965121,522.941559 C529.745721,522.941559 525.496401,526.147419 522.079741,529.575639 C521.94782,529.728299 521.68364,529.562719 521.84106,529.373679 C525.33592,525.858759 529.61414,522.643039 533.96716,522.643039 C535.46486,522.643039 535.92998,523.216279 535.79058,524.007119 C535.72564,524.374319 535.49784,524.829239 535.16906,525.306599 C541.69706,525.517739 548.17916,533.174879 558.91466,534.100359 C563.679759,534.511079 568.90998,532.627819 568.90998,528.344499 C568.90998,525.59764 565.43042,523.87554 563.10516,523.45768 C558.06466,522.5526 554.3658,524.53038 554.77312,528.60324 C554.8265,529.13806 554.13766,529.1588 554.08224,528.65866 C553.6246,524.54262 557.59512,522.12284 563.16534,523.12312 L563.165342,523.123119 Z M531.081243,528.114999 C531.901323,528.114999 533.464303,526.888619 534.487363,525.652379 C534.275203,525.663599 534.062703,525.683319 533.849863,525.712559 C532.114843,525.9492 530.717443,526.9131 530.717443,527.80016 C530.717443,528.0164 530.824883,528.114999 531.081243,528.114999 L531.081243,528.114999 Z" id="R6r"></path>
        </g>
    </g>
</svg>